<svg width="293" height="16" viewBox="0 0 293 16" fill="none" xmlns="http://www.w3.org/2000/svg">
<path d="M0.62 14V3.64H7.452V4.844H1.992V8.26H6.808V9.464H1.992V14H0.62ZM8.64211 14V6.58H9.97211V7.504H10.0281C10.1868 7.224 10.4201 6.97667 10.7281 6.762C11.0361 6.54733 11.4701 6.44 12.0301 6.44C12.1888 6.44 12.3334 6.44933 12.4641 6.468C12.5948 6.47733 12.6601 6.482 12.6601 6.482V7.756C12.6601 7.756 12.5854 7.75133 12.4361 7.742C12.2961 7.72333 12.1468 7.714 11.9881 7.714C11.3441 7.714 10.8448 7.90067 10.4901 8.274C10.1448 8.638 9.97211 9.23533 9.97211 10.066V14H8.64211ZM16.938 14.14C16.3313 14.14 15.804 14.0327 15.356 13.818C14.9173 13.594 14.5533 13.2953 14.264 12.922C13.984 12.5487 13.774 12.138 13.634 11.69C13.494 11.2327 13.424 10.766 13.424 10.29C13.424 9.82333 13.4893 9.36133 13.62 8.904C13.76 8.44667 13.97 8.03133 14.25 7.658C14.5393 7.28467 14.8987 6.99067 15.328 6.776C15.7667 6.552 16.2847 6.44 16.882 6.44C17.5167 6.44 18.0767 6.58467 18.562 6.874C19.0473 7.16333 19.43 7.59267 19.71 8.162C19.99 8.73133 20.13 9.44533 20.13 10.304V10.696H14.768C14.796 11.116 14.894 11.5033 15.062 11.858C15.2393 12.2033 15.4867 12.4833 15.804 12.698C16.1213 12.9033 16.4993 13.006 16.938 13.006C17.3207 13.006 17.6287 12.9453 17.862 12.824C18.1047 12.6933 18.296 12.544 18.436 12.376C18.576 12.208 18.6693 12.0633 18.716 11.942C18.772 11.8113 18.8 11.746 18.8 11.746H20.046C20.046 11.746 20.0227 11.83 19.976 11.998C19.9293 12.1567 19.8453 12.3527 19.724 12.586C19.6027 12.8193 19.4253 13.0573 19.192 13.3C18.9587 13.5333 18.66 13.734 18.296 13.902C17.932 14.0607 17.4793 14.14 16.938 14.14ZM14.782 9.66H18.828C18.8093 9.17467 18.7067 8.78267 18.52 8.484C18.3333 8.176 18.0953 7.94733 17.806 7.798C17.5167 7.64867 17.2087 7.574 16.882 7.574C16.294 7.574 15.8133 7.76533 15.44 8.148C15.0667 8.52133 14.8473 9.02533 14.782 9.66ZM25.2505 14.14C24.6438 14.14 24.1165 14.0327 23.6685 13.818C23.2298 13.594 22.8658 13.2953 22.5765 12.922C22.2965 12.5487 22.0865 12.138 21.9465 11.69C21.8065 11.2327 21.7365 10.766 21.7365 10.29C21.7365 9.82333 21.8018 9.36133 21.9325 8.904C22.0725 8.44667 22.2825 8.03133 22.5625 7.658C22.8518 7.28467 23.2112 6.99067 23.6405 6.776C24.0792 6.552 24.5972 6.44 25.1945 6.44C25.8292 6.44 26.3892 6.58467 26.8745 6.874C27.3598 7.16333 27.7425 7.59267 28.0225 8.162C28.3025 8.73133 28.4425 9.44533 28.4425 10.304V10.696H23.0805C23.1085 11.116 23.2065 11.5033 23.3745 11.858C23.5518 12.2033 23.7992 12.4833 24.1165 12.698C24.4338 12.9033 24.8118 13.006 25.2505 13.006C25.6332 13.006 25.9412 12.9453 26.1745 12.824C26.4172 12.6933 26.6085 12.544 26.7485 12.376C26.8885 12.208 26.9818 12.0633 27.0285 11.942C27.0845 11.8113 27.1125 11.746 27.1125 11.746H28.3585C28.3585 11.746 28.3352 11.83 28.2885 11.998C28.2418 12.1567 28.1578 12.3527 28.0365 12.586C27.9152 12.8193 27.7378 13.0573 27.5045 13.3C27.2712 13.5333 26.9725 13.734 26.6085 13.902C26.2445 14.0607 25.7918 14.14 25.2505 14.14ZM23.0945 9.66H27.1405C27.1218 9.17467 27.0192 8.78267 26.8325 8.484C26.6458 8.176 26.4078 7.94733 26.1185 7.798C25.8292 7.64867 25.5212 7.574 25.1945 7.574C24.6065 7.574 24.1258 7.76533 23.7525 8.148C23.3792 8.52133 23.1598 9.02533 23.0945 9.66ZM38.1739 14.14C37.3619 14.14 36.6479 13.9907 36.0319 13.692C35.4159 13.384 34.9026 12.978 34.4919 12.474C34.0906 11.9607 33.7872 11.3913 33.5819 10.766C33.3766 10.1313 33.2739 9.48267 33.2739 8.82C33.2739 8.15733 33.3766 7.50867 33.5819 6.874C33.7872 6.23933 34.0906 5.67 34.4919 5.166C34.9026 4.65267 35.4159 4.24667 36.0319 3.948C36.6479 3.64933 37.3619 3.5 38.1739 3.5C38.8459 3.5 39.4199 3.58867 39.8959 3.766C40.3812 3.934 40.7826 4.15333 41.0999 4.424C41.4266 4.69467 41.6879 4.984 41.8839 5.292C42.0892 5.6 42.2386 5.88933 42.3319 6.16C42.4346 6.43067 42.4999 6.65467 42.5279 6.832C42.5652 7 42.5839 7.084 42.5839 7.084H41.2119C41.2119 7.084 41.1932 7.00933 41.1559 6.86C41.1186 6.70133 41.0439 6.51 40.9319 6.286C40.8199 6.05267 40.6519 5.81933 40.4279 5.586C40.2039 5.35267 39.9099 5.16133 39.5459 5.012C39.1819 4.85333 38.7292 4.774 38.1879 4.774C37.5999 4.774 37.0866 4.89067 36.6479 5.124C36.2092 5.348 35.8406 5.656 35.5419 6.048C35.2526 6.43067 35.0332 6.86467 34.8839 7.35C34.7439 7.826 34.6739 8.316 34.6739 8.82C34.6739 9.324 34.7439 9.81867 34.8839 10.304C35.0332 10.78 35.2526 11.214 35.5419 11.606C35.8406 11.9887 36.2092 12.2967 36.6479 12.53C37.0866 12.754 37.5999 12.866 38.1879 12.866C38.7292 12.866 39.1819 12.7867 39.5459 12.628C39.9099 12.4693 40.2039 12.278 40.4279 12.054C40.6519 11.8207 40.8199 11.592 40.9319 11.368C41.0439 11.1347 41.1186 10.9387 41.1559 10.78C41.1932 10.6213 41.2119 10.542 41.2119 10.542H42.5839C42.5839 10.542 42.5652 10.6307 42.5279 10.808C42.4999 10.976 42.4346 11.2 42.3319 11.48C42.2386 11.7507 42.0892 12.04 41.8839 12.348C41.6879 12.6467 41.4266 12.936 41.0999 13.216C40.7826 13.4867 40.3812 13.7107 39.8959 13.888C39.4199 14.056 38.8459 14.14 38.1739 14.14ZM47.8534 14.14C47.06 14.14 46.3927 13.958 45.8514 13.594C45.31 13.2207 44.8994 12.74 44.6194 12.152C44.3394 11.564 44.1994 10.9433 44.1994 10.29C44.1994 9.62733 44.3394 9.00667 44.6194 8.428C44.8994 7.84 45.31 7.364 45.8514 7C46.3927 6.62667 47.06 6.44 47.8534 6.44C48.6467 6.44 49.314 6.62667 49.8554 7C50.3967 7.364 50.8074 7.84 51.0874 8.428C51.3674 9.00667 51.5074 9.62733 51.5074 10.29C51.5074 10.9433 51.3674 11.564 51.0874 12.152C50.8074 12.74 50.3967 13.2207 49.8554 13.594C49.314 13.958 48.6467 14.14 47.8534 14.14ZM47.8534 12.978C48.3574 12.978 48.7774 12.852 49.1134 12.6C49.4587 12.3387 49.7154 12.0027 49.8834 11.592C50.0607 11.1813 50.1494 10.7473 50.1494 10.29C50.1494 9.82333 50.0607 9.38933 49.8834 8.988C49.7154 8.57733 49.4587 8.246 49.1134 7.994C48.7774 7.73267 48.3574 7.602 47.8534 7.602C47.3587 7.602 46.9387 7.73267 46.5934 7.994C46.248 8.246 45.9867 8.57733 45.8094 8.988C45.6414 9.38933 45.5574 9.82333 45.5574 10.29C45.5574 10.7473 45.6414 11.1813 45.8094 11.592C45.9867 12.0027 46.248 12.3387 46.5934 12.6C46.9387 12.852 47.3587 12.978 47.8534 12.978ZM55.7438 14.14C55.0065 14.14 54.4185 13.9113 53.9798 13.454C53.5411 12.9967 53.3218 12.362 53.3218 11.55V6.58H54.6518V11.48C54.6518 11.9653 54.7825 12.3387 55.0438 12.6C55.3145 12.8613 55.6691 12.992 56.1078 12.992C56.5558 12.992 56.9151 12.8753 57.1858 12.642C57.4565 12.4087 57.6525 12.11 57.7738 11.746C57.8951 11.382 57.9558 11.0087 57.9558 10.626V6.58H59.2858V14H57.9558V12.936H57.8718C57.8158 13.048 57.7085 13.202 57.5498 13.398C57.3911 13.5847 57.1671 13.7573 56.8778 13.916C56.5885 14.0653 56.2105 14.14 55.7438 14.14ZM61.2515 14V6.58H62.5815V7.504H62.6375C62.7962 7.224 63.0295 6.97667 63.3375 6.762C63.6455 6.54733 64.0795 6.44 64.6395 6.44C64.7982 6.44 64.9428 6.44933 65.0735 6.468C65.2042 6.47733 65.2695 6.482 65.2695 6.482V7.756C65.2695 7.756 65.1948 7.75133 65.0455 7.742C64.9055 7.72333 64.7562 7.714 64.5975 7.714C63.9535 7.714 63.4542 7.90067 63.0995 8.274C62.7542 8.638 62.5815 9.23533 62.5815 10.066V14H61.2515ZM69.4499 14.14C68.8806 14.14 68.4092 14.0607 68.0359 13.902C67.6719 13.7433 67.3826 13.5473 67.1679 13.314C66.9532 13.0713 66.7946 12.8333 66.6919 12.6C66.5892 12.3573 66.5239 12.1567 66.4959 11.998C66.4679 11.8393 66.4539 11.76 66.4539 11.76H67.7979C67.7979 11.76 67.8119 11.8253 67.8399 11.956C67.8772 12.0773 67.9472 12.222 68.0499 12.39C68.1619 12.5487 68.3299 12.6933 68.5539 12.824C68.7872 12.9453 69.0952 13.006 69.4779 13.006C69.9166 13.006 70.2572 12.9033 70.4999 12.698C70.7426 12.4833 70.8639 12.222 70.8639 11.914C70.8639 11.6433 70.7659 11.4287 70.5699 11.27C70.3832 11.1113 70.1126 10.99 69.7579 10.906L68.7499 10.668C68.3766 10.5747 68.0266 10.4487 67.6999 10.29C67.3732 10.1313 67.1072 9.91667 66.9019 9.646C66.7059 9.366 66.6079 9.02067 66.6079 8.61C66.6079 7.97533 66.8459 7.45733 67.3219 7.056C67.7979 6.64533 68.4186 6.44 69.1839 6.44C69.6972 6.44 70.1219 6.51467 70.4579 6.664C70.7939 6.804 71.0599 6.98133 71.2559 7.196C71.4612 7.41067 71.6106 7.62533 71.7039 7.84C71.8066 8.05467 71.8719 8.23667 71.8999 8.386C71.9279 8.526 71.9419 8.596 71.9419 8.596H70.6539C70.6539 8.596 70.6399 8.54467 70.6119 8.442C70.5839 8.33 70.5186 8.20867 70.4159 8.078C70.3226 7.938 70.1779 7.81667 69.9819 7.714C69.7859 7.602 69.5246 7.546 69.1979 7.546C68.7499 7.546 68.4232 7.64867 68.2179 7.854C68.0126 8.05933 67.9099 8.28333 67.9099 8.526C67.9099 8.75933 68.0032 8.95067 68.1899 9.1C68.3859 9.24 68.6379 9.34733 68.9459 9.422L69.9679 9.66C70.6026 9.80933 71.1252 10.0567 71.5359 10.402C71.9559 10.738 72.1659 11.2233 72.1659 11.858C72.1659 12.2687 72.0586 12.6513 71.8439 13.006C71.6292 13.3513 71.3212 13.6267 70.9199 13.832C70.5186 14.0373 70.0286 14.14 69.4499 14.14ZM77.0806 14.14C76.4739 14.14 75.9466 14.0327 75.4986 13.818C75.0599 13.594 74.6959 13.2953 74.4066 12.922C74.1266 12.5487 73.9166 12.138 73.7766 11.69C73.6366 11.2327 73.5666 10.766 73.5666 10.29C73.5666 9.82333 73.6319 9.36133 73.7626 8.904C73.9026 8.44667 74.1126 8.03133 74.3926 7.658C74.6819 7.28467 75.0412 6.99067 75.4706 6.776C75.9092 6.552 76.4272 6.44 77.0246 6.44C77.6592 6.44 78.2192 6.58467 78.7046 6.874C79.1899 7.16333 79.5726 7.59267 79.8526 8.162C80.1326 8.73133 80.2726 9.44533 80.2726 10.304V10.696H74.9106C74.9386 11.116 75.0366 11.5033 75.2046 11.858C75.3819 12.2033 75.6292 12.4833 75.9466 12.698C76.2639 12.9033 76.6419 13.006 77.0806 13.006C77.4632 13.006 77.7712 12.9453 78.0046 12.824C78.2472 12.6933 78.4386 12.544 78.5786 12.376C78.7186 12.208 78.8119 12.0633 78.8586 11.942C78.9146 11.8113 78.9426 11.746 78.9426 11.746H80.1886C80.1886 11.746 80.1652 11.83 80.1186 11.998C80.0719 12.1567 79.9879 12.3527 79.8666 12.586C79.7452 12.8193 79.5679 13.0573 79.3346 13.3C79.1012 13.5333 78.8026 13.734 78.4386 13.902C78.0746 14.0607 77.6219 14.14 77.0806 14.14ZM74.9246 9.66H78.9706C78.9519 9.17467 78.8492 8.78267 78.6626 8.484C78.4759 8.176 78.2379 7.94733 77.9486 7.798C77.6592 7.64867 77.3512 7.574 77.0246 7.574C76.4366 7.574 75.9559 7.76533 75.5826 8.148C75.2092 8.52133 74.9899 9.02533 74.9246 9.66ZM84.8034 14.14C84.2341 14.14 83.7628 14.0607 83.3894 13.902C83.0254 13.7433 82.7361 13.5473 82.5214 13.314C82.3068 13.0713 82.1481 12.8333 82.0454 12.6C81.9428 12.3573 81.8774 12.1567 81.8494 11.998C81.8214 11.8393 81.8074 11.76 81.8074 11.76H83.1514C83.1514 11.76 83.1654 11.8253 83.1934 11.956C83.2308 12.0773 83.3008 12.222 83.4034 12.39C83.5154 12.5487 83.6834 12.6933 83.9074 12.824C84.1408 12.9453 84.4488 13.006 84.8314 13.006C85.2701 13.006 85.6108 12.9033 85.8534 12.698C86.0961 12.4833 86.2174 12.222 86.2174 11.914C86.2174 11.6433 86.1194 11.4287 85.9234 11.27C85.7368 11.1113 85.4661 10.99 85.1114 10.906L84.1034 10.668C83.7301 10.5747 83.3801 10.4487 83.0534 10.29C82.7268 10.1313 82.4608 9.91667 82.2554 9.646C82.0594 9.366 81.9614 9.02067 81.9614 8.61C81.9614 7.97533 82.1994 7.45733 82.6754 7.056C83.1514 6.64533 83.7721 6.44 84.5374 6.44C85.0508 6.44 85.4754 6.51467 85.8114 6.664C86.1474 6.804 86.4134 6.98133 86.6094 7.196C86.8148 7.41067 86.9641 7.62533 87.0574 7.84C87.1601 8.05467 87.2254 8.23667 87.2534 8.386C87.2814 8.526 87.2954 8.596 87.2954 8.596H86.0074C86.0074 8.596 85.9934 8.54467 85.9654 8.442C85.9374 8.33 85.8721 8.20867 85.7694 8.078C85.6761 7.938 85.5314 7.81667 85.3354 7.714C85.1394 7.602 84.8781 7.546 84.5514 7.546C84.1034 7.546 83.7768 7.64867 83.5714 7.854C83.3661 8.05933 83.2634 8.28333 83.2634 8.526C83.2634 8.75933 83.3568 8.95067 83.5434 9.1C83.7394 9.24 83.9914 9.34733 84.2994 9.422L85.3214 9.66C85.9561 9.80933 86.4788 10.0567 86.8894 10.402C87.3094 10.738 87.5194 11.2233 87.5194 11.858C87.5194 12.2687 87.4121 12.6513 87.1974 13.006C86.9828 13.3513 86.6748 13.6267 86.2734 13.832C85.8721 14.0373 85.3821 14.14 84.8034 14.14ZM91.4434 14.98H105.443V0.98H91.4434V14.98ZM113.262 14.14C112.665 14.14 112.151 14.0653 111.722 13.916C111.302 13.7573 110.952 13.5567 110.672 13.314C110.392 13.062 110.168 12.8007 110 12.53C109.832 12.2593 109.706 12.0027 109.622 11.76C109.538 11.508 109.482 11.3073 109.454 11.158C109.435 10.9993 109.426 10.92 109.426 10.92H110.826C110.826 10.92 110.84 10.9853 110.868 11.116C110.896 11.2467 110.952 11.41 111.036 11.606C111.129 11.802 111.265 12.0027 111.442 12.208C111.619 12.404 111.857 12.5673 112.156 12.698C112.455 12.8287 112.833 12.894 113.29 12.894C113.981 12.894 114.527 12.7307 114.928 12.404C115.329 12.068 115.53 11.634 115.53 11.102C115.53 10.6447 115.376 10.29 115.068 10.038C114.769 9.786 114.34 9.59 113.78 9.45L112.408 9.114C111.923 8.99267 111.47 8.82467 111.05 8.61C110.639 8.386 110.308 8.09667 110.056 7.742C109.813 7.378 109.692 6.92533 109.692 6.384C109.692 5.77733 109.841 5.25933 110.14 4.83C110.439 4.40067 110.845 4.074 111.358 3.85C111.871 3.61667 112.455 3.5 113.108 3.5C113.743 3.5 114.27 3.598 114.69 3.794C115.11 3.99 115.446 4.23267 115.698 4.522C115.95 4.802 116.137 5.08667 116.258 5.376C116.379 5.656 116.459 5.894 116.496 6.09C116.533 6.286 116.552 6.384 116.552 6.384H115.208C115.208 6.384 115.189 6.3 115.152 6.132C115.115 5.964 115.026 5.77267 114.886 5.558C114.746 5.334 114.531 5.138 114.242 4.97C113.953 4.802 113.561 4.718 113.066 4.718C112.394 4.718 111.885 4.87667 111.54 5.194C111.204 5.51133 111.036 5.87533 111.036 6.286C111.036 6.65933 111.171 6.96267 111.442 7.196C111.713 7.42 112.086 7.59267 112.562 7.714L114.046 8.078C114.578 8.20867 115.059 8.4 115.488 8.652C115.917 8.89467 116.258 9.212 116.51 9.604C116.762 9.98667 116.888 10.458 116.888 11.018C116.888 11.578 116.748 12.096 116.468 12.572C116.197 13.048 115.791 13.4307 115.25 13.72C114.718 14 114.055 14.14 113.262 14.14ZM121.757 6.44C122.223 6.44 122.615 6.51467 122.933 6.664C123.25 6.81333 123.507 6.99067 123.703 7.196C123.899 7.392 124.048 7.57867 124.151 7.756H124.235V6.58H125.565V14H124.235V12.824H124.151C124.048 13.0013 123.899 13.1927 123.703 13.398C123.507 13.6033 123.25 13.7807 122.933 13.93C122.615 14.07 122.223 14.14 121.757 14.14C121.197 14.14 120.707 14.0327 120.287 13.818C119.867 13.594 119.517 13.3 119.237 12.936C118.957 12.5627 118.747 12.1473 118.607 11.69C118.467 11.2327 118.397 10.766 118.397 10.29C118.397 9.814 118.467 9.34733 118.607 8.89C118.747 8.43267 118.957 8.022 119.237 7.658C119.517 7.28467 119.867 6.99067 120.287 6.776C120.707 6.552 121.197 6.44 121.757 6.44ZM121.981 7.574C121.486 7.574 121.071 7.70933 120.735 7.98C120.399 8.24133 120.147 8.57733 119.979 8.988C119.82 9.39867 119.741 9.83267 119.741 10.29C119.741 10.738 119.82 11.172 119.979 11.592C120.147 12.0027 120.399 12.3433 120.735 12.614C121.071 12.8753 121.486 13.006 121.981 13.006C122.475 13.006 122.886 12.8753 123.213 12.614C123.549 12.3433 123.796 12.0027 123.955 11.592C124.123 11.172 124.207 10.738 124.207 10.29C124.207 9.83267 124.123 9.39867 123.955 8.988C123.796 8.57733 123.549 8.24133 123.213 7.98C122.886 7.70933 122.475 7.574 121.981 7.574ZM127.659 14L127.673 3.36H128.989V14H127.659ZM134.461 14.14C133.855 14.14 133.327 14.0327 132.879 13.818C132.441 13.594 132.077 13.2953 131.787 12.922C131.507 12.5487 131.297 12.138 131.157 11.69C131.017 11.2327 130.947 10.766 130.947 10.29C130.947 9.82333 131.013 9.36133 131.143 8.904C131.283 8.44667 131.493 8.03133 131.773 7.658C132.063 7.28467 132.422 6.99067 132.851 6.776C133.29 6.552 133.808 6.44 134.405 6.44C135.04 6.44 135.6 6.58467 136.085 6.874C136.571 7.16333 136.953 7.59267 137.233 8.162C137.513 8.73133 137.653 9.44533 137.653 10.304V10.696H132.291C132.319 11.116 132.417 11.5033 132.585 11.858C132.763 12.2033 133.01 12.4833 133.327 12.698C133.645 12.9033 134.023 13.006 134.461 13.006C134.844 13.006 135.152 12.9453 135.385 12.824C135.628 12.6933 135.819 12.544 135.959 12.376C136.099 12.208 136.193 12.0633 136.239 11.942C136.295 11.8113 136.323 11.746 136.323 11.746H137.569C137.569 11.746 137.546 11.83 137.499 11.998C137.453 12.1567 137.369 12.3527 137.247 12.586C137.126 12.8193 136.949 13.0573 136.715 13.3C136.482 13.5333 136.183 13.734 135.819 13.902C135.455 14.0607 135.003 14.14 134.461 14.14ZM132.305 9.66H136.351C136.333 9.17467 136.23 8.78267 136.043 8.484C135.857 8.176 135.619 7.94733 135.329 7.798C135.04 7.64867 134.732 7.574 134.405 7.574C133.817 7.574 133.337 7.76533 132.963 8.148C132.59 8.52133 132.371 9.02533 132.305 9.66ZM142.835 14V3.64H149.415V4.844H144.207V8.12H148.771V9.324H144.207V12.796H149.485V14H142.835ZM151.376 14V6.58H152.706V7.658H152.79C152.856 7.546 152.963 7.392 153.112 7.196C153.271 7 153.495 6.82733 153.784 6.678C154.074 6.51933 154.438 6.44 154.876 6.44C155.418 6.44 155.88 6.566 156.262 6.818C156.645 7.06067 156.934 7.392 157.13 7.812C157.336 8.232 157.438 8.70333 157.438 9.226V14H156.108V9.31C156.108 8.81533 155.968 8.40467 155.688 8.078C155.418 7.75133 155.021 7.588 154.498 7.588C154.078 7.588 153.738 7.69533 153.476 7.91C153.215 8.11533 153.019 8.39067 152.888 8.736C152.767 9.072 152.706 9.43133 152.706 9.814V14H151.376ZM162.622 14.14C162.062 14.14 161.572 14.0327 161.152 13.818C160.732 13.594 160.382 13.3 160.102 12.936C159.822 12.5627 159.612 12.1473 159.472 11.69C159.332 11.2327 159.262 10.766 159.262 10.29C159.262 9.814 159.332 9.34733 159.472 8.89C159.612 8.43267 159.822 8.022 160.102 7.658C160.382 7.28467 160.732 6.99067 161.152 6.776C161.572 6.552 162.062 6.44 162.622 6.44C163.089 6.44 163.481 6.51467 163.798 6.664C164.115 6.81333 164.372 6.99067 164.568 7.196C164.764 7.392 164.913 7.57867 165.016 7.756H165.1V3.36H166.43V14H165.1V12.824H165.016C164.913 13.0013 164.764 13.1927 164.568 13.398C164.372 13.6033 164.115 13.7807 163.798 13.93C163.481 14.07 163.089 14.14 162.622 14.14ZM162.846 13.006C163.341 13.006 163.751 12.8753 164.078 12.614C164.414 12.3433 164.661 12.0027 164.82 11.592C164.988 11.172 165.072 10.738 165.072 10.29C165.072 9.83267 164.988 9.39867 164.82 8.988C164.661 8.57733 164.414 8.24133 164.078 7.98C163.751 7.70933 163.341 7.574 162.846 7.574C162.351 7.574 161.936 7.70933 161.6 7.98C161.264 8.24133 161.012 8.57733 160.844 8.988C160.685 9.39867 160.606 9.83267 160.606 10.29C160.606 10.738 160.685 11.172 160.844 11.592C161.012 12.0027 161.264 12.3433 161.6 12.614C161.936 12.8753 162.351 13.006 162.846 13.006ZM171.251 14.14C170.681 14.14 170.21 14.0607 169.837 13.902C169.473 13.7433 169.183 13.5473 168.969 13.314C168.754 13.0713 168.595 12.8333 168.493 12.6C168.39 12.3573 168.325 12.1567 168.297 11.998C168.269 11.8393 168.255 11.76 168.255 11.76H169.599C169.599 11.76 169.613 11.8253 169.641 11.956C169.678 12.0773 169.748 12.222 169.851 12.39C169.963 12.5487 170.131 12.6933 170.355 12.824C170.588 12.9453 170.896 13.006 171.279 13.006C171.717 13.006 172.058 12.9033 172.301 12.698C172.543 12.4833 172.665 12.222 172.665 11.914C172.665 11.6433 172.567 11.4287 172.371 11.27C172.184 11.1113 171.913 10.99 171.559 10.906L170.551 10.668C170.177 10.5747 169.827 10.4487 169.501 10.29C169.174 10.1313 168.908 9.91667 168.703 9.646C168.507 9.366 168.409 9.02067 168.409 8.61C168.409 7.97533 168.647 7.45733 169.123 7.056C169.599 6.64533 170.219 6.44 170.985 6.44C171.498 6.44 171.923 6.51467 172.259 6.664C172.595 6.804 172.861 6.98133 173.057 7.196C173.262 7.41067 173.411 7.62533 173.505 7.84C173.607 8.05467 173.673 8.23667 173.701 8.386C173.729 8.526 173.743 8.596 173.743 8.596H172.455C172.455 8.596 172.441 8.54467 172.413 8.442C172.385 8.33 172.319 8.20867 172.217 8.078C172.123 7.938 171.979 7.81667 171.783 7.714C171.587 7.602 171.325 7.546 170.999 7.546C170.551 7.546 170.224 7.64867 170.019 7.854C169.813 8.05933 169.711 8.28333 169.711 8.526C169.711 8.75933 169.804 8.95067 169.991 9.1C170.187 9.24 170.439 9.34733 170.747 9.422L171.769 9.66C172.403 9.80933 172.926 10.0567 173.337 10.402C173.757 10.738 173.967 11.2233 173.967 11.858C173.967 12.2687 173.859 12.6513 173.645 13.006C173.43 13.3513 173.122 13.6267 172.721 13.832C172.319 14.0373 171.829 14.14 171.251 14.14ZM182.483 14.14C181.885 14.14 181.372 14.0653 180.943 13.916C180.523 13.7573 180.173 13.5567 179.893 13.314C179.613 13.062 179.389 12.8007 179.221 12.53C179.053 12.2593 178.927 12.0027 178.843 11.76C178.759 11.508 178.703 11.3073 178.675 11.158C178.656 10.9993 178.647 10.92 178.647 10.92H180.047C180.047 10.92 180.061 10.9853 180.089 11.116C180.117 11.2467 180.173 11.41 180.257 11.606C180.35 11.802 180.485 12.0027 180.663 12.208C180.84 12.404 181.078 12.5673 181.377 12.698C181.675 12.8287 182.053 12.894 182.511 12.894C183.201 12.894 183.747 12.7307 184.149 12.404C184.55 12.068 184.751 11.634 184.751 11.102C184.751 10.6447 184.597 10.29 184.289 10.038C183.99 9.786 183.561 9.59 183.001 9.45L181.629 9.114C181.143 8.99267 180.691 8.82467 180.271 8.61C179.86 8.386 179.529 8.09667 179.277 7.742C179.034 7.378 178.913 6.92533 178.913 6.384C178.913 5.77733 179.062 5.25933 179.361 4.83C179.659 4.40067 180.065 4.074 180.579 3.85C181.092 3.61667 181.675 3.5 182.329 3.5C182.963 3.5 183.491 3.598 183.911 3.794C184.331 3.99 184.667 4.23267 184.919 4.522C185.171 4.802 185.357 5.08667 185.479 5.376C185.6 5.656 185.679 5.894 185.717 6.09C185.754 6.286 185.773 6.384 185.773 6.384H184.429C184.429 6.384 184.41 6.3 184.373 6.132C184.335 5.964 184.247 5.77267 184.107 5.558C183.967 5.334 183.752 5.138 183.463 4.97C183.173 4.802 182.781 4.718 182.287 4.718C181.615 4.718 181.106 4.87667 180.761 5.194C180.425 5.51133 180.257 5.87533 180.257 6.286C180.257 6.65933 180.392 6.96267 180.663 7.196C180.933 7.42 181.307 7.59267 181.783 7.714L183.267 8.078C183.799 8.20867 184.279 8.4 184.709 8.652C185.138 8.89467 185.479 9.212 185.731 9.604C185.983 9.98667 186.109 10.458 186.109 11.018C186.109 11.578 185.969 12.096 185.689 12.572C185.418 13.048 185.012 13.4307 184.471 13.72C183.939 14 183.276 14.14 182.483 14.14ZM191.271 14.14C190.478 14.14 189.811 13.958 189.269 13.594C188.728 13.2207 188.317 12.74 188.037 12.152C187.757 11.564 187.617 10.9433 187.617 10.29C187.617 9.62733 187.757 9.00667 188.037 8.428C188.317 7.84 188.728 7.364 189.269 7C189.811 6.62667 190.478 6.44 191.271 6.44C192.065 6.44 192.732 6.62667 193.273 7C193.815 7.364 194.225 7.84 194.505 8.428C194.785 9.00667 194.925 9.62733 194.925 10.29C194.925 10.9433 194.785 11.564 194.505 12.152C194.225 12.74 193.815 13.2207 193.273 13.594C192.732 13.958 192.065 14.14 191.271 14.14ZM191.271 12.978C191.775 12.978 192.195 12.852 192.531 12.6C192.877 12.3387 193.133 12.0027 193.301 11.592C193.479 11.1813 193.567 10.7473 193.567 10.29C193.567 9.82333 193.479 9.38933 193.301 8.988C193.133 8.57733 192.877 8.246 192.531 7.994C192.195 7.73267 191.775 7.602 191.271 7.602C190.777 7.602 190.357 7.73267 190.011 7.994C189.666 8.246 189.405 8.57733 189.227 8.988C189.059 9.38933 188.975 9.82333 188.975 10.29C188.975 10.7473 189.059 11.1813 189.227 11.592C189.405 12.0027 189.666 12.3387 190.011 12.6C190.357 12.852 190.777 12.978 191.271 12.978ZM200.185 14.14C199.392 14.14 198.725 13.958 198.183 13.594C197.642 13.2207 197.231 12.74 196.951 12.152C196.671 11.564 196.531 10.9433 196.531 10.29C196.531 9.62733 196.671 9.00667 196.951 8.428C197.231 7.84 197.642 7.364 198.183 7C198.725 6.62667 199.392 6.44 200.185 6.44C200.979 6.44 201.646 6.62667 202.187 7C202.729 7.364 203.139 7.84 203.419 8.428C203.699 9.00667 203.839 9.62733 203.839 10.29C203.839 10.9433 203.699 11.564 203.419 12.152C203.139 12.74 202.729 13.2207 202.187 13.594C201.646 13.958 200.979 14.14 200.185 14.14ZM200.185 12.978C200.689 12.978 201.109 12.852 201.445 12.6C201.791 12.3387 202.047 12.0027 202.215 11.592C202.393 11.1813 202.481 10.7473 202.481 10.29C202.481 9.82333 202.393 9.38933 202.215 8.988C202.047 8.57733 201.791 8.246 201.445 7.994C201.109 7.73267 200.689 7.602 200.185 7.602C199.691 7.602 199.271 7.73267 198.925 7.994C198.58 8.246 198.319 8.57733 198.141 8.988C197.973 9.38933 197.889 9.82333 197.889 10.29C197.889 10.7473 197.973 11.1813 198.141 11.592C198.319 12.0027 198.58 12.3387 198.925 12.6C199.271 12.852 199.691 12.978 200.185 12.978ZM205.654 14V6.58H206.984V7.658H207.068C207.133 7.546 207.24 7.392 207.39 7.196C207.548 7 207.772 6.82733 208.062 6.678C208.351 6.51933 208.715 6.44 209.154 6.44C209.695 6.44 210.157 6.566 210.54 6.818C210.922 7.06067 211.212 7.392 211.408 7.812C211.613 8.232 211.716 8.70333 211.716 9.226V14H210.386V9.31C210.386 8.81533 210.246 8.40467 209.966 8.078C209.695 7.75133 209.298 7.588 208.776 7.588C208.356 7.588 208.015 7.69533 207.754 7.91C207.492 8.11533 207.296 8.39067 207.166 8.736C207.044 9.072 206.984 9.43133 206.984 9.814V14H205.654ZM213.791 15.722L214.799 14.098C214.575 14.0793 214.384 13.986 214.225 13.818C214.076 13.65 214.001 13.4447 214.001 13.202C214.001 12.9313 214.095 12.7167 214.281 12.558C214.468 12.3993 214.678 12.32 214.911 12.32C215.173 12.32 215.392 12.3993 215.569 12.558C215.756 12.7167 215.849 12.9407 215.849 13.23C215.849 13.4913 215.747 13.79 215.541 14.126C215.345 14.462 215.028 14.9473 214.589 15.582L214.491 15.722H213.791ZM225.904 14.14C225.064 14.14 224.331 13.9907 223.706 13.692C223.081 13.3933 222.563 12.992 222.152 12.488C221.741 11.9747 221.433 11.4053 221.228 10.78C221.032 10.1453 220.934 9.49667 220.934 8.834C220.934 8.17133 221.032 7.52267 221.228 6.888C221.433 6.25333 221.741 5.684 222.152 5.18C222.572 4.66667 223.095 4.26067 223.72 3.962C224.355 3.654 225.097 3.5 225.946 3.5C226.599 3.5 227.159 3.584 227.626 3.752C228.102 3.92 228.499 4.13467 228.816 4.396C229.133 4.65733 229.39 4.93733 229.586 5.236C229.782 5.52533 229.931 5.80067 230.034 6.062C230.137 6.32333 230.202 6.538 230.23 6.706C230.267 6.874 230.286 6.958 230.286 6.958H228.9C228.9 6.958 228.881 6.88333 228.844 6.734C228.807 6.58467 228.732 6.40267 228.62 6.188C228.508 5.964 228.34 5.74467 228.116 5.53C227.901 5.306 227.617 5.11933 227.262 4.97C226.917 4.82067 226.483 4.746 225.96 4.746C225.344 4.746 224.807 4.86267 224.35 5.096C223.893 5.32933 223.515 5.642 223.216 6.034C222.917 6.41667 222.693 6.85067 222.544 7.336C222.395 7.812 222.32 8.302 222.32 8.806C222.32 9.31933 222.395 9.82333 222.544 10.318C222.693 10.8033 222.917 11.242 223.216 11.634C223.524 12.0167 223.902 12.3247 224.35 12.558C224.798 12.782 225.316 12.894 225.904 12.894C226.865 12.894 227.626 12.614 228.186 12.054C228.755 11.4847 229.063 10.7193 229.11 9.758H226.03V8.624H230.426V9.338C230.426 10.402 230.221 11.2887 229.81 11.998C229.409 12.7073 228.867 13.244 228.186 13.608C227.505 13.9627 226.744 14.14 225.904 14.14ZM235.483 14.14C234.876 14.14 234.349 14.0327 233.901 13.818C233.462 13.594 233.098 13.2953 232.809 12.922C232.529 12.5487 232.319 12.138 232.179 11.69C232.039 11.2327 231.969 10.766 231.969 10.29C231.969 9.82333 232.034 9.36133 232.165 8.904C232.305 8.44667 232.515 8.03133 232.795 7.658C233.084 7.28467 233.444 6.99067 233.873 6.776C234.312 6.552 234.83 6.44 235.427 6.44C236.062 6.44 236.622 6.58467 237.107 6.874C237.592 7.16333 237.975 7.59267 238.255 8.162C238.535 8.73133 238.675 9.44533 238.675 10.304V10.696H233.313C233.341 11.116 233.439 11.5033 233.607 11.858C233.784 12.2033 234.032 12.4833 234.349 12.698C234.666 12.9033 235.044 13.006 235.483 13.006C235.866 13.006 236.174 12.9453 236.407 12.824C236.65 12.6933 236.841 12.544 236.981 12.376C237.121 12.208 237.214 12.0633 237.261 11.942C237.317 11.8113 237.345 11.746 237.345 11.746H238.591C238.591 11.746 238.568 11.83 238.521 11.998C238.474 12.1567 238.39 12.3527 238.269 12.586C238.148 12.8193 237.97 13.0573 237.737 13.3C237.504 13.5333 237.205 13.734 236.841 13.902C236.477 14.0607 236.024 14.14 235.483 14.14ZM233.327 9.66H237.373C237.354 9.17467 237.252 8.78267 237.065 8.484C236.878 8.176 236.64 7.94733 236.351 7.798C236.062 7.64867 235.754 7.574 235.427 7.574C234.839 7.574 234.358 7.76533 233.985 8.148C233.612 8.52133 233.392 9.02533 233.327 9.66ZM243.503 14.14C242.738 14.14 242.159 13.944 241.767 13.552C241.384 13.16 241.193 12.6093 241.193 11.9V7.672H239.863V6.58H241.193V4.718H242.523V6.58H244.329V7.672H242.523V11.9C242.523 12.2733 242.626 12.5487 242.831 12.726C243.036 12.894 243.335 12.978 243.727 12.978C243.932 12.978 244.128 12.964 244.315 12.936C244.502 12.908 244.595 12.894 244.595 12.894V14.028C244.595 14.028 244.488 14.0467 244.273 14.084C244.058 14.1213 243.802 14.14 243.503 14.14ZM249.708 14V3.64H251.08V14H249.708ZM256.327 14.14C255.562 14.14 254.983 13.944 254.591 13.552C254.209 13.16 254.017 12.6093 254.017 11.9V7.672H252.687V6.58H254.017V4.718H255.347V6.58H257.153V7.672H255.347V11.9C255.347 12.2733 255.45 12.5487 255.655 12.726C255.861 12.894 256.159 12.978 256.551 12.978C256.757 12.978 256.953 12.964 257.139 12.936C257.326 12.908 257.419 12.894 257.419 12.894V14.028C257.419 14.028 257.312 14.0467 257.097 14.084C256.883 14.1213 256.626 14.14 256.327 14.14ZM262.532 14V3.64H263.764L269.168 11.522V3.64H270.54V14H269.308L263.904 6.132V14H262.532ZM276.16 14.14C275.367 14.14 274.699 13.958 274.158 13.594C273.617 13.2207 273.206 12.74 272.926 12.152C272.646 11.564 272.506 10.9433 272.506 10.29C272.506 9.62733 272.646 9.00667 272.926 8.428C273.206 7.84 273.617 7.364 274.158 7C274.699 6.62667 275.367 6.44 276.16 6.44C276.953 6.44 277.621 6.62667 278.162 7C278.703 7.364 279.114 7.84 279.394 8.428C279.674 9.00667 279.814 9.62733 279.814 10.29C279.814 10.9433 279.674 11.564 279.394 12.152C279.114 12.74 278.703 13.2207 278.162 13.594C277.621 13.958 276.953 14.14 276.16 14.14ZM276.16 12.978C276.664 12.978 277.084 12.852 277.42 12.6C277.765 12.3387 278.022 12.0027 278.19 11.592C278.367 11.1813 278.456 10.7473 278.456 10.29C278.456 9.82333 278.367 9.38933 278.19 8.988C278.022 8.57733 277.765 8.246 277.42 7.994C277.084 7.73267 276.664 7.602 276.16 7.602C275.665 7.602 275.245 7.73267 274.9 7.994C274.555 8.246 274.293 8.57733 274.116 8.988C273.948 9.38933 273.864 9.82333 273.864 10.29C273.864 10.7473 273.948 11.1813 274.116 11.592C274.293 12.0027 274.555 12.3387 274.9 12.6C275.245 12.852 275.665 12.978 276.16 12.978ZM283.259 14L280.865 6.58H282.223L283.987 12.208L285.835 6.58H287.095L288.929 12.208L290.707 6.58H292.065L289.657 14H288.229L286.465 8.526L284.701 14H283.259Z" fill="white"/>
</svg>
