<svg width="21" height="20" viewBox="0 0 21 20" fill="none" xmlns="http://www.w3.org/2000/svg">
<g clip-path="url(#clip0_109_1323)">
<path d="M6.6248 18.1251C14.1701 18.1251 18.2982 11.8724 18.2982 6.45167C18.2982 6.27589 18.2943 6.0962 18.2865 5.92042C19.0896 5.33967 19.7826 4.62033 20.333 3.7962C19.5851 4.12896 18.791 4.34627 17.9779 4.44074C18.8341 3.92755 19.4751 3.12135 19.7822 2.17159C18.9768 2.64892 18.096 2.98563 17.1775 3.1673C16.5587 2.50976 15.7405 2.07439 14.8494 1.9285C13.9583 1.78261 13.044 1.93433 12.2478 2.3602C11.4516 2.78607 10.8178 3.46238 10.4445 4.28455C10.0713 5.10672 9.9792 6.02897 10.1826 6.9087C8.55175 6.82686 6.95629 6.40321 5.49966 5.6652C4.04303 4.9272 2.75775 3.89132 1.72715 2.62472C1.20334 3.52782 1.04305 4.59649 1.27887 5.61353C1.51468 6.63057 2.12889 7.51966 2.99668 8.10011C2.3452 8.07943 1.70799 7.90402 1.1377 7.58839V7.63917C1.13711 8.58691 1.46476 9.50561 2.06493 10.2391C2.66511 10.9726 3.50078 11.4756 4.42988 11.6626C3.82639 11.8277 3.19299 11.8518 2.57871 11.7329C2.84089 12.548 3.35099 13.2609 4.03782 13.7721C4.72465 14.2833 5.55394 14.5673 6.40996 14.5845C4.95669 15.726 3.16149 16.3452 1.31348 16.3423C0.985747 16.3418 0.65834 16.3217 0.333008 16.2821C2.21039 17.4866 4.39428 18.1263 6.6248 18.1251Z" fill="#333333"/>
</g>
<defs>
<clipPath id="clip0_109_1323">
<rect width="20" height="20" fill="white" transform="translate(0.333008)"/>
</clipPath>
</defs>
</svg>
